<svg width="19" height="14" viewBox="0 0 19 14" fill="none" xmlns="http://www.w3.org/2000/svg">
<path d="M11.6801 13.6375C11.4901 13.6375 11.3001 13.5675 11.1501 13.4175C10.8601 13.1275 10.8601 12.6475 11.1501 12.3575L16.6901 6.8175L11.1501 1.2775C10.8601 0.9875 10.8601 0.5075 11.1501 0.2175C11.4401 -0.0725 11.9201 -0.0725 12.2101 0.2175L18.2801 6.2875C18.5701 6.5775 18.5701 7.0575 18.2801 7.3475L12.2101 13.4175C12.0601 13.5675 11.8701 13.6375 11.6801 13.6375Z" fill="#292D32"/>
<path d="M17.58 7.56738H0.75C0.34 7.56738 0 7.22738 0 6.81738C0 6.40738 0.34 6.06738 0.75 6.06738H17.58C17.99 6.06738 18.33 6.40738 18.33 6.81738C18.33 7.22738 17.99 7.56738 17.58 7.56738Z" fill="#292D32"/>
</svg>
