<svg width="19" height="14" viewBox="0 0 19 14" fill="none" xmlns="http://www.w3.org/2000/svg">
<path d="M6.81744 -4.8572e-05C7.00744 -4.85887e-05 7.19744 0.0699507 7.34744 0.219951C7.63744 0.509951 7.63744 0.98995 7.34744 1.27995L1.80744 6.81995L7.34744 12.36C7.63744 12.65 7.63744 13.13 7.34744 13.42C7.05744 13.71 6.57744 13.71 6.28744 13.42L0.21744 7.34995C-0.0725604 7.05995 -0.0725605 6.57995 0.217439 6.28995L6.28744 0.219951C6.43744 0.0699508 6.62744 -4.85554e-05 6.81744 -4.8572e-05Z" fill="#292D32"/>
<path d="M0.917559 6.07007L17.7476 6.07007C18.1576 6.07007 18.4976 6.41007 18.4976 6.82007C18.4976 7.23007 18.1576 7.57007 17.7476 7.57007L0.917559 7.57007C0.507559 7.57007 0.167559 7.23007 0.167559 6.82007C0.167559 6.41007 0.507559 6.07007 0.917559 6.07007Z" fill="#292D32"/>
</svg>
