<svg width="22" height="22" viewBox="0 0 22 22" fill="none" xmlns="http://www.w3.org/2000/svg">
<path d="M8.68076 14.0066C8.5066 14.0066 8.33243 13.9424 8.19493 13.8049C7.44326 13.0533 7.03076 12.0541 7.03076 10.9999C7.03076 8.80909 8.80909 7.03076 10.9999 7.03076C12.0541 7.03076 13.0533 7.44326 13.8049 8.19493C13.9333 8.32326 14.0066 8.49743 14.0066 8.68076C14.0066 8.8641 13.9333 9.03826 13.8049 9.16659L9.16659 13.8049C9.02909 13.9424 8.85493 14.0066 8.68076 14.0066ZM10.9999 8.40576C9.56993 8.40576 8.40576 9.56993 8.40576 10.9999C8.40576 11.4583 8.52493 11.8983 8.74493 12.2833L12.2833 8.74493C11.8983 8.52493 11.4583 8.40576 10.9999 8.40576Z" fill="white"/>
<path d="M5.13343 16.9675C4.9776 16.9675 4.8126 16.9125 4.68427 16.8025C3.70343 15.9684 2.82343 14.9417 2.07177 13.75C1.1001 12.2375 1.1001 9.77169 2.07177 8.25002C4.30843 4.74836 7.5626 2.73169 11.0001 2.73169C13.0168 2.73169 15.0059 3.42836 16.7476 4.73919C17.0501 4.96836 17.1143 5.39919 16.8851 5.70169C16.6559 6.00419 16.2251 6.06836 15.9226 5.83919C14.4193 4.70252 12.7143 4.10669 11.0001 4.10669C8.03927 4.10669 5.20677 5.88502 3.22677 8.99252C2.53927 10.065 2.53927 11.935 3.22677 13.0075C3.91427 14.08 4.7026 15.0059 5.57343 15.7575C5.8576 16.005 5.89427 16.4359 5.64677 16.7292C5.51843 16.885 5.32593 16.9675 5.13343 16.9675Z" fill="white"/>
<path d="M11.0001 19.2683C9.78093 19.2683 8.58926 19.0208 7.44343 18.535C7.0951 18.3883 6.9301 17.985 7.07676 17.6366C7.22343 17.2883 7.62676 17.1233 7.9751 17.27C8.94676 17.6825 9.96426 17.8933 10.9909 17.8933C13.9518 17.8933 16.7843 16.115 18.7643 13.0075C19.4518 11.935 19.4518 10.065 18.7643 8.99246C18.4801 8.54329 18.1684 8.11246 17.8384 7.70912C17.6001 7.41579 17.6459 6.98496 17.9393 6.73746C18.2326 6.49912 18.6634 6.53579 18.9109 6.83829C19.2684 7.27829 19.6168 7.75496 19.9284 8.24996C20.9001 9.76246 20.9001 12.2283 19.9284 13.75C17.6918 17.2516 14.4376 19.2683 11.0001 19.2683Z" fill="white"/>
<path d="M11.6326 14.9142C11.3118 14.9142 11.0184 14.6851 10.9543 14.3551C10.8809 13.9792 11.1284 13.6217 11.5043 13.5576C12.5126 13.3742 13.3559 12.5309 13.5393 11.5226C13.6126 11.1467 13.9701 10.9084 14.3459 10.9726C14.7218 11.0459 14.9693 11.4034 14.8959 11.7792C14.6026 13.3651 13.3376 14.6209 11.7609 14.9142C11.7151 14.9051 11.6784 14.9142 11.6326 14.9142Z" fill="white"/>
<path d="M1.8334 20.8542C1.65924 20.8542 1.48507 20.7901 1.34757 20.6526C1.08174 20.3867 1.08174 19.9467 1.34757 19.6809L8.19507 12.8334C8.4609 12.5676 8.9009 12.5676 9.16674 12.8334C9.43257 13.0992 9.43257 13.5392 9.16674 13.8051L2.31924 20.6526C2.18174 20.7901 2.00757 20.8542 1.8334 20.8542Z" fill="white"/>
<path d="M13.3192 9.3684C13.1451 9.3684 12.9709 9.30424 12.8334 9.16674C12.5676 8.9009 12.5676 8.4609 12.8334 8.19507L19.6809 1.34757C19.9467 1.08174 20.3867 1.08174 20.6526 1.34757C20.9184 1.6134 20.9184 2.0534 20.6526 2.31923L13.8051 9.16674C13.6676 9.30424 13.4934 9.3684 13.3192 9.3684Z" fill="white"/>
</svg>
